# xmcd
#
# Track frame offsets:
#	150
#	13009
#	24328
#	39330
#	54749
#	66646
#	82637
#	100570
#	116319
#	129746
#	142528
#	153085
#	163765
#	178603
#	195041
#	210915
#	222463
#	242763
#	256552
#	269587
#	283521
#	292450
#
# Disc length: 4158
#
# Revision: 1
# Processed by: cddbd v1.5.1PL0 Copyright (c) Steve Scherf et al.
# Submitted via: ExactAudioCopy v0.95a4
# Normalized: r0:TDELIM( - ),TSWAP
#
DISCID=29103c16
DTITLE=Various Artist - The Most Awesome Line Dancing Album vol.4
DYEAR=1900
DGENRE=
TTITLE0=Deana Carter - You Still Shake Me
TTITLE1=Chris Ledoux - Under This Old Hat
TTITLE2=Sam Millar - She Is Just Too Hot For Me
TTITLE3=Billy Dean - Saturday Night
TTITLE4=Wild Rose - Go Down Swingin'
TTITLE5=Trace Adkins - There's A Girl In Texas
TTITLE6=Eddy Raven - Island
TTITLE7=Asleep At The Wheel Featuring Huey Lewi - Hubbin' It
TTITLE8=Sharon B - Your Cheatin' Heart
TTITLE9=Suzy Bogguss - All Things Made New Again
TTITLE10=Noah Gordon - I Need A Break
TTITLE11=Pirates Of The Mississippi - Pop From The Top
TTITLE12=Lacy J Dalton - Lightnin' Strikes A Good Man
TTITLE13=Tanya Tucker - I Don't Believe That's How You Feel
TTITLE14=Paul Rutter - On The Tracks To Tennessee
TTITLE15=Linda Davis - Do I Do It To You Too
TTITLE16=Steve Wariner - Two Teardrops
TTITLE17=Kix Brooks - She Does The Walk On By
TTITLE18=Barbara Mandrell - I Wish That I Could Fall In Love Today
TTITLE19=Larry Gatlin - Houston (Means I'm One Day Closer To You)
TTITLE20=Dude Mowrey - Honky Tonk Song
TTITLE21=Asleep At The Wheel - Big Ball's In Cow Town
EXTD=
EXTT0=
EXTT1=
EXTT2=
EXTT3=
EXTT4=
EXTT5=
EXTT6=
EXTT7=
EXTT8=
EXTT9=
EXTT10=
EXTT11=
EXTT12=
EXTT13=
EXTT14=
EXTT15=
EXTT16=
EXTT17=
EXTT18=
EXTT19=
EXTT20=
EXTT21=
PLAYORDER=
